<svg width="27" height="26" viewBox="0 0 27 26" fill="none" xmlns="http://www.w3.org/2000/svg">
<g clip-path="url(#clip0_197_207112)">
<path d="M21.058 4.81055C20.71 4.81055 20.4268 5.09375 20.4268 5.44176C20.4268 5.78976 20.71 6.07297 21.058 6.07297C21.406 6.07297 21.6892 5.78981 21.6892 5.44176C21.6892 5.0937 21.406 4.81055 21.058 4.81055Z" fill="white"/>
<path d="M13.5002 7.4043C10.4146 7.4043 7.9043 9.91462 7.9043 13.0002C7.9043 16.0858 10.4146 18.5961 13.5002 18.5961C16.5858 18.5961 19.0961 16.0858 19.0961 13.0002C19.0961 9.91467 16.5858 7.4043 13.5002 7.4043Z" fill="white"/>
<path d="M19.3725 0H7.6275C3.69739 0 0.5 3.19739 0.5 7.12755V18.8725C0.5 22.8027 3.69739 26 7.6275 26H19.3725C23.3027 26 26.5 22.8026 26.5 18.8725V7.12755C26.5 3.19739 23.3027 0 19.3725 0ZM13.5 20.1313C9.56775 20.1313 6.36874 16.9322 6.36874 13C6.36874 9.06775 9.5678 5.86879 13.5 5.86879C17.4322 5.86879 20.6313 9.0678 20.6313 13C20.6313 16.9322 17.4322 20.1313 13.5 20.1313ZM21.0578 7.60886C19.8631 7.60886 18.8912 6.63691 18.8912 5.44223C18.8912 4.24755 19.8631 3.27554 21.0578 3.27554C22.2525 3.27554 23.2245 4.2475 23.2245 5.44218C23.2245 6.63686 22.2525 7.60886 21.0578 7.60886Z" fill="white"/>
</g>
<defs>
<clipPath id="clip0_197_207112">
<rect width="26" height="26" fill="white" transform="translate(0.5)"/>
</clipPath>
</defs>
</svg>
