<svg width="18" height="18" viewBox="0 0 18 18" fill="none" xmlns="http://www.w3.org/2000/svg">
<g clip-path="url(#clip0_197_209793)">
<path d="M15.8324 13.182C16.6045 11.9241 17.0123 10.4764 17.0102 9.00038V9.00009C17.0123 7.52403 16.6045 6.07638 15.8323 4.81839L15.8279 4.81152C15.1116 3.64393 14.1078 2.67955 12.9124 2.01054C11.717 1.34153 10.3701 0.99024 9.00026 0.990234C7.63042 0.990229 6.28347 1.34151 5.08811 2.01051C3.89275 2.67951 2.88892 3.64388 2.17254 4.81146L2.16809 4.81842C1.39784 6.07727 0.99024 7.52441 0.990234 9.00021C0.990229 10.476 1.39782 11.9231 2.16806 13.182L2.17258 13.1891C2.88896 14.3566 3.89279 15.321 5.08814 15.99C6.2835 16.659 7.63044 17.0102 9.00026 17.0102C10.3701 17.0102 11.717 16.6589 12.9124 15.9899C14.1077 15.3209 15.1115 14.3566 15.8279 13.189L15.8324 13.182ZM10.0241 15.6374C9.87146 15.7847 9.69578 15.906 9.504 15.9966C9.34659 16.0714 9.1745 16.1102 9.00023 16.1102C8.82595 16.1102 8.65386 16.0714 8.49645 15.9966C8.1315 15.8102 7.8191 15.5353 7.5878 15.197C7.11542 14.5144 6.76534 13.7549 6.55323 12.9523C7.36807 12.9021 8.18374 12.8766 9.00023 12.8757C9.81639 12.8757 10.6321 12.9012 11.4474 12.9523C11.33 13.3649 11.1833 13.7687 11.0085 14.1605C10.7784 14.7115 10.4441 15.213 10.0241 15.6374ZM1.90589 9.45023H5.13671C5.15775 10.3518 5.25547 11.2498 5.42881 12.1348C4.54563 12.2125 3.6647 12.3192 2.78603 12.455C2.2715 11.5319 1.97073 10.5051 1.90589 9.45023ZM2.78603 5.54545C3.66435 5.68156 4.54559 5.78833 5.42973 5.86575C5.25605 6.75063 5.15812 7.64871 5.137 8.55023H1.90589C1.97073 7.4954 2.2715 6.46857 2.78603 5.54545ZM7.97636 2.36303C8.12899 2.21575 8.30467 2.09442 8.49645 2.00382C8.65386 1.92903 8.82595 1.89022 9.00023 1.89022C9.1745 1.89022 9.34659 1.92903 9.504 2.00382C9.86895 2.19023 10.1814 2.46515 10.4127 2.80344C10.885 3.48604 11.2351 4.2456 11.4472 5.04815C10.6324 5.0983 9.81671 5.12384 9.00023 5.12479C8.18408 5.12477 7.36836 5.09923 6.55308 5.04814C6.67049 4.63551 6.81715 4.23176 6.99193 3.83996C7.22208 3.28894 7.55632 2.78748 7.97636 2.36303ZM16.0946 8.55023H12.8638C12.8427 7.64871 12.745 6.75062 12.5717 5.86567C13.4549 5.78795 14.3358 5.68121 15.2144 5.54545C15.729 6.46856 16.0297 7.4954 16.0946 8.55023ZM6.33399 12.0648C6.15799 11.2038 6.05858 10.3288 6.03695 9.45023H11.9636C11.9422 10.3288 11.8429 11.2038 11.6671 12.0648C10.7791 12.0066 9.89016 11.9769 9.00023 11.9757C8.11095 11.9757 7.2222 12.0054 6.33399 12.0648ZM11.6665 5.93564C11.8425 6.79669 11.9419 7.67164 11.9635 8.55023H6.03685C6.05829 7.67164 6.15751 6.79668 6.33335 5.9356C7.22134 5.99386 8.1103 6.02358 9.00023 6.02477C9.88952 6.02477 10.7783 5.99506 11.6665 5.93564ZM12.8634 9.45023H16.0946C16.0297 10.5051 15.729 11.5319 15.2144 12.455C14.3361 12.3189 13.4549 12.2121 12.5707 12.1347C12.7444 11.2498 12.8423 10.3518 12.8634 9.45023ZM14.6748 4.71709C13.9069 4.82789 13.1366 4.91561 12.3641 4.98025C12.2252 4.46331 12.0462 3.95802 11.8285 3.46901C11.6298 3.019 11.3797 2.59346 11.0833 2.20085C12.5158 2.64015 13.7727 3.52082 14.6748 4.71709ZM3.97268 3.97268C4.79437 3.15022 5.80526 2.54187 6.91674 2.20096C6.89988 2.2228 6.88253 2.24367 6.86591 2.26597C6.29461 3.08838 5.87847 4.00831 5.63801 4.98039C4.86543 4.91496 4.09465 4.82719 3.32566 4.71709C3.52399 4.4544 3.74017 4.20567 3.97268 3.97268ZM3.32565 13.2834C4.09358 13.1726 4.86382 13.0848 5.63636 13.0202C5.77521 13.5371 5.95428 14.0424 6.17195 14.5315C6.37067 14.9815 6.62072 15.407 6.91712 15.7996C5.4847 15.3603 4.22772 14.4796 3.32565 13.2834ZM14.0278 14.0278C13.2061 14.8502 12.1952 15.4586 11.0837 15.7995C11.1006 15.7777 11.1179 15.7568 11.1345 15.7345C11.7059 14.9121 12.122 13.9921 12.3625 13.0201C13.135 13.0855 13.9058 13.1733 14.6748 13.2834C14.4765 13.5461 14.2603 13.7948 14.0278 14.0278Z" fill="url(#paint0_linear_197_209793)"/>
</g>
<defs>
<linearGradient id="paint0_linear_197_209793" x1="0.990234" y1="9.00023" x2="17.0102" y2="9.00023" gradientUnits="userSpaceOnUse">
<stop stop-color="#B6B6B6"/>
<stop offset="0.224" stop-color="#B4B4B4"/>
<stop offset="0.498968" stop-color="#F3F3F3"/>
<stop offset="0.729" stop-color="#C4C4C4"/>
<stop offset="0.849" stop-color="#E2E2E2"/>
<stop offset="1" stop-color="#999999"/>
</linearGradient>
<clipPath id="clip0_197_209793">
<rect width="18" height="18" fill="white"/>
</clipPath>
</defs>
</svg>
