<svg width="28" height="27" viewBox="0 0 28 27" fill="none" xmlns="http://www.w3.org/2000/svg">
<path d="M25.8295 6.77051C24.2886 6.77051 22.8669 6.26004 21.7252 5.39889C20.4158 4.4117 19.4751 2.96361 19.1428 1.29457C19.0606 0.882187 19.0163 0.456621 19.012 0.0205078H14.6103V12.0482L14.605 18.6363C14.605 20.3976 13.4581 21.891 11.8681 22.4163C11.4067 22.5687 10.9084 22.6409 10.3894 22.6124C9.7271 22.5761 9.10642 22.3762 8.56695 22.0535C7.41892 21.3669 6.64056 20.1213 6.61947 18.6964C6.58624 16.4694 8.3866 14.6538 10.612 14.6538C11.0513 14.6538 11.4731 14.7255 11.8681 14.8557V11.5683V10.3865C11.4515 10.3248 11.0275 10.2926 10.5988 10.2926C8.163 10.2926 5.88488 11.3051 4.25644 13.1292C3.02562 14.5077 2.28734 16.2664 2.17343 18.1105C2.02419 20.5331 2.91066 22.836 4.6298 24.5351C4.8824 24.7846 5.14765 25.0161 5.42503 25.2296C6.89896 26.364 8.70089 26.9788 10.5988 26.9788C11.0275 26.9788 11.4515 26.9472 11.8681 26.8855C13.641 26.6229 15.2769 25.8113 16.5678 24.5351C18.1541 22.9673 19.0305 20.8859 19.04 18.6705L19.0173 8.83242C19.7741 9.41619 20.6015 9.89924 21.4895 10.2742C22.8706 10.8569 24.3351 11.1522 25.8422 11.1517V7.95545V6.76945C25.8433 6.77051 25.8306 6.77051 25.8295 6.77051Z" fill="white"/>
</svg>
